<?xml version="1.0" encoding="utf-8"?>
<!-- Svg Vector Icons : http://www.onlinewebfonts.com/icon -->
<!DOCTYPE svg PUBLIC "-//W3C//DTD SVG 1.1//EN" "http://www.w3.org/Graphics/SVG/1.1/DTD/svg11.dtd">
<svg version="1.1" xmlns="http://www.w3.org/2000/svg" xmlns:xlink="http://www.w3.org/1999/xlink" x="0px" y="0px" viewBox="0 0 256 256" enable-background="new 0 0 256 256" xml:space="preserve">
<metadata> Svg Vector Icons : http://www.onlinewebfonts.com/icon </metadata>
<g><g><path fill="#000000" d="M128,246c-65.2,0-118-52.8-118-118C10,62.8,62.8,10,128,10c65.2,0,118,52.8,118,118C246,193.2,193.2,246,128,246L128,246z M128,24.8C71,24.8,24.7,71,24.7,128c0,57,46.2,103.3,103.3,103.3S231.3,185,231.3,128C231.3,71,185,24.8,128,24.8L128,24.8z M67.8,188l40-80.1l80.1-40l-40,80.1L67.8,188L67.8,188z M138.1,118.2c-5.6-5.4-14.8-5.4-20.4,0c-5.6,5.4-5.6,14.1,0,19.5c5.6,5.4,14.8,5.4,20.4,0C143.8,132.3,143.8,123.6,138.1,118.2L138.1,118.2z"/></g></g>
</svg>