<?xml version="1.0" encoding="utf-8"?>
<!-- Svg Vector Icons : http://www.onlinewebfonts.com/icon -->
<!DOCTYPE svg PUBLIC "-//W3C//DTD SVG 1.1//EN" "http://www.w3.org/Graphics/SVG/1.1/DTD/svg11.dtd">
<svg version="1.1" xmlns="http://www.w3.org/2000/svg" xmlns:xlink="http://www.w3.org/1999/xlink" x="0px" y="0px" viewBox="0 0 256 256" enable-background="new 0 0 256 256" xml:space="preserve">
<metadata> Svg Vector Icons : http://www.onlinewebfonts.com/icon </metadata>
<g><g><g><path fill="#000000" d="M121.8,10.3c-19.3,3.5-34.1,19.4-35.9,38.5c-0.6,6.3-0.6,89.4,0,95.5c0.6,6,1.4,9.4,3.8,14.2c10.2,21.6,34.9,30.9,55.6,21c2.2-1,5.2-2.8,6.8-3.9c3.3-2.4,8.8-8,11-11.2c2.4-3.6,5.1-9.7,6.1-14c0.9-3.9,0.9-5.1,0.8-55.1l-0.1-51.1l-1.6-4.6c-6-17.3-21.4-29-38.9-29.5C126.5,9.9,123,10,121.8,10.3z"/><path fill="#000000" d="M62.2,144.4c0.8,9.5,2.7,16.1,6.8,24.8c7.2,14.8,20.1,26.7,35.9,32.9c3.9,1.5,11.5,3.5,15.7,4l2.7,0.3v15.2v15.2H106H88.7v4.7v4.7H128h39.3v-4.7v-4.7H150h-17.3v-15.2v-15.2l2.7-0.3c6.7-0.8,15.5-3.5,22-6.8c9.8-5,20-14.4,26.3-24.2c5.3-8.3,9.1-19.8,10-30.5l0.3-3.8h-4.7c-3.9,0-4.7,0.1-4.7,0.7c0,0.4-0.2,2.8-0.5,5.3c-1.5,13.2-7,24.9-16.1,34c-10.7,10.7-24.2,16.1-40,16.1c-15.8,0-29.2-5.4-40-16.1c-9.4-9.3-14.8-21-16.2-34.8l-0.6-5.2h-4.7H62L62.2,144.4z"/></g></g></g>
</svg>