<?xml version="1.0" encoding="utf-8"?>
<!-- Svg Vector Icons : http://www.onlinewebfonts.com/icon -->
<!DOCTYPE svg PUBLIC "-//W3C//DTD SVG 1.1//EN" "http://www.w3.org/Graphics/SVG/1.1/DTD/svg11.dtd">
<svg version="1.1" xmlns="http://www.w3.org/2000/svg" xmlns:xlink="http://www.w3.org/1999/xlink" x="0px" y="0px" viewBox="0 0 256 256" enable-background="new 0 0 256 256" xml:space="preserve">
<metadata> Svg Vector Icons : http://www.onlinewebfonts.com/icon </metadata>
<g><g><path fill="#000000" d="M10,80.1h70.2V9.9H10V80.1z M20.8,20.7h48.6v48.6H20.8V20.7z"/><path fill="#000000" d="M92.7,80.1H163V9.9H92.7V80.1z M103.6,20.7h48.6v48.6h-48.6V20.7z"/><path fill="#000000" d="M175.8,9.9v70.2H246V9.9H175.8z M235.2,69.3h-48.6V20.7h48.6V69.3z"/><path fill="#000000" d="M10,163.1h70.2V92.9H10V163.1z M20.8,103.7h48.6v48.6H20.8V103.7z"/><path fill="#000000" d="M92.7,163.1H163V92.9H92.7V163.1z M103.6,103.7h48.6v48.6h-48.6V103.7z"/><path fill="#000000" d="M175.8,163.1H246V92.9h-70.2V163.1z M186.5,103.7h48.6v48.6h-48.6V103.7z"/><path fill="#000000" d="M10,246.1h70.2v-70.3H10V246.1z M20.8,186.7h48.6v48.6H20.8V186.7z"/><path fill="#000000" d="M92.7,246.1H163v-70.3H92.7V246.1z M103.6,186.7h48.6v48.6h-48.6V186.7z"/><path fill="#000000" d="M175.8,246.1H246v-70.3h-70.2V246.1z M186.5,186.7h48.6v48.6h-48.6V186.7z"/></g></g>
</svg>